<svg width="150" height="174" viewBox="0 0 150 174" fill="none" xmlns="http://www.w3.org/2000/svg">
<path d="M50.7353 0H99.2647V15.4177H50.7353V0Z" fill="#00A3FF"/>
<path fill-rule="evenodd" clip-rule="evenodd" d="M75 24.2278C116.421 24.2278 150 57.7555 150 99.1139C150 140.472 116.421 174 75 174C33.5786 174 0 140.472 0 99.1139C0 57.7555 33.5786 24.2278 75 24.2278ZM75 39.6456C42.1066 39.6456 15.4412 66.2705 15.4412 99.1139C15.4412 131.957 42.1066 158.582 75 158.582C107.893 158.582 134.559 131.957 134.559 99.1139C134.559 66.2705 107.893 39.6456 75 39.6456Z" fill="#00A3FF"/>
<path d="M105.665 139.469C97.1468 145.932 86.5236 149.772 75 149.772C70.6343 149.772 66.3972 149.222 62.355 148.187L86.3547 106.681L86.6197 106.53L105.665 139.469Z" fill="#00A3FF"/>
<path d="M75.7346 112.329L75.9974 112.48L56.4525 146.279C41.625 140.461 30.2078 127.875 26.0117 112.329H75.7346Z" fill="#00A3FF"/>
<path d="M125.511 94.3712C125.656 95.9327 125.735 97.5145 125.735 99.1139C125.735 113.368 119.836 126.244 110.346 135.449L86.7704 94.6744V94.3712H125.511Z" fill="#00A3FF"/>
<path d="M65.5259 105.965V106.272H24.7709C24.4396 103.933 24.2647 101.544 24.2647 99.1139C24.2647 84.5714 30.4021 71.4604 40.2315 62.2215L65.5259 105.965Z" fill="#00A3FF"/>
<path d="M75 48.4557C80.5173 48.4557 85.828 49.3377 90.8009 50.9637L65.9417 93.956L65.6745 94.1109L44.9599 58.2875C53.3698 52.1079 63.7575 48.4557 75 48.4557Z" fill="#00A3FF"/>
<path d="M96.5009 53.22C110.619 59.8253 121.187 72.7314 124.576 88.3142H76.5596L76.2947 88.1615L96.5009 53.22Z" fill="#00A3FF"/>
<path d="M134.671 28.4106L145.589 39.3125L132.242 52.6395L121.324 41.7375L134.671 28.4106Z" fill="#00A3FF"/>
</svg>
