<svg width="23" height="35" viewBox="0 0 23 35" fill="none" xmlns="http://www.w3.org/2000/svg">
<path d="M18.3061 20.3L11.7347 29.8667H15.9592L16.4286 34.7667L23 25.9H18.3061V20.3Z" fill="#64748B"/>
<path fill-rule="evenodd" clip-rule="evenodd" d="M12.2041 3.40293H16.4286C17.2063 3.40293 17.8367 4.05585 17.8367 4.86126V16.3739C17.5273 16.3474 17.2143 16.3333 16.898 16.3333C10.9355 16.3333 6.10204 21.1388 6.10204 27.0667C6.10204 30.2096 7.46078 33.037 9.62612 35H1.40816C0.630457 35 6.67722e-07 34.3471 0 33.5417V4.86126C0 4.05585 0.630456 3.40293 1.40816 3.40293H5.16327V0H12.2041V3.40293ZM3.7551 14.5833H14.0816V7.29167H3.7551V14.5833Z" fill="#64748B"/>
</svg>
