<svg width="228" height="229" viewBox="0 0 228 229" fill="none" xmlns="http://www.w3.org/2000/svg">
<path d="M129.26 58.6024C145.058 52.8323 146.614 36.9646 145.417 29.752V17.1299L112.205 9.91732L61.937 22.5394L31.4173 50.4882L18.8504 83.8465L81.685 146.957C75.9402 172.201 93.0551 180.916 102.331 182.118V215.476H136.441L175.937 192.937C176.535 190.833 177.373 184.282 175.937 174.906C174.501 165.529 165.165 160.18 160.677 158.677H145.417V123.516C145.417 115.582 139.433 114.801 136.441 115.402H70.9134V91.9606H92.4567C99.6378 91.9606 102.031 86.5512 102.331 83.8465V58.6024H129.26Z" fill="#788AA0"/>
<path fill-rule="evenodd" clip-rule="evenodd" d="M114 0C176.96 0 228 51.2634 228 114.5C228 177.737 176.96 229 114 229C51.0395 229 0 177.737 0 114.5C0 51.2634 51.0395 0 114 0ZM114 18.0315C60.9546 18.0315 17.9528 61.2219 17.9528 114.5C17.9528 167.778 60.9546 210.969 114 210.969C167.045 210.969 210.047 167.778 210.047 114.5C210.047 61.2219 167.045 18.0315 114 18.0315Z" fill="#788AA0"/>
</svg>
