<svg width="31" height="32" viewBox="0 0 31 32" fill="none" xmlns="http://www.w3.org/2000/svg">
<path d="M11.1458 0.620481C23.5755 -2.48808 31.8701 6.58637 30.928 16.6332C30.201 24.3862 22.5542 24.902 18.3675 24.1693C19.3095 26.3674 19.9378 31.1622 15.8558 31.7064C11.1458 32.3343 6.30561 28.9903 4.55207 27.3099C-2.984 20.088 -1.41423 3.76172 11.1458 0.620481ZM7.06379 12.8666C5.67643 12.8666 4.55207 13.991 4.55207 15.3783C4.55208 16.7656 5.67644 17.89 7.06379 17.89C8.45114 17.89 9.5755 16.7656 9.57551 15.3783C9.57551 13.991 8.45114 12.8666 7.06379 12.8666ZM24.0198 12.2386C22.6326 12.2387 21.5081 13.3631 21.5081 14.7504C21.5082 16.1376 22.6326 17.262 24.0198 17.2621C25.4072 17.2621 26.5315 16.1377 26.5316 14.7504C26.5316 13.363 25.4072 12.2386 24.0198 12.2386ZM11.4603 6.5863C10.0729 6.5863 8.94758 7.71167 8.94758 9.099C8.94779 10.4861 10.073 11.6107 11.4603 11.6107C12.8473 11.6105 13.9718 10.486 13.972 9.099C13.972 7.71181 12.8474 6.58654 11.4603 6.5863ZM19.6243 6.5863C18.237 6.5863 17.1116 7.71167 17.1116 9.099C17.1118 10.4861 18.2371 11.6107 19.6243 11.6107C21.0114 11.6105 22.1358 10.486 22.1361 9.099C22.1361 7.7118 21.0115 6.58652 19.6243 6.5863Z" fill="#64748B"/>
</svg>
