<svg width="192" height="229" viewBox="0 0 192 229" fill="none" xmlns="http://www.w3.org/2000/svg">
<path fill-rule="evenodd" clip-rule="evenodd" d="M172.475 34.1064C183.258 34.1064 192 42.8321 192 53.5957V175.404C192 186.168 183.258 194.894 172.475 194.894H19.5254C8.74183 194.894 3.14495e-07 186.168 0 175.404V53.5957C3.14495e-07 42.8321 8.74183 34.1064 19.5254 34.1064H172.475ZM96.3385 144.546C71.9096 144.546 50.3435 156.762 37.4237 175.404H155.253C142.333 156.762 120.767 144.546 96.3385 144.546ZM96 64.9645C79.8246 64.9645 66.7119 78.0531 66.7119 94.1986C66.7119 110.344 79.8246 123.433 96 123.433C112.175 123.433 125.288 110.344 125.288 94.1986C125.288 78.0531 112.175 64.9645 96 64.9645Z" fill="#788AA0"/>
<path d="M19.5254 0H174.102V21.1135H19.5254V0Z" fill="#788AA0"/>
<path d="M19.5254 207.887H174.102V229H19.5254V207.887Z" fill="#788AA0"/>
</svg>
