<svg width="120" height="140" viewBox="0 0 120 140" fill="none" xmlns="http://www.w3.org/2000/svg">
<path d="M40.5882 0H79.4118V12.4051H40.5882V0Z" fill="#00A3FF"/>
<path fill-rule="evenodd" clip-rule="evenodd" d="M60 19.4937C93.1371 19.4937 120 46.4699 120 79.7468C120 113.024 93.1371 140 60 140C26.8629 140 0 113.024 0 79.7468C0 46.4699 26.8629 19.4937 60 19.4937ZM60 31.8987C33.6853 31.8987 12.3529 53.3211 12.3529 79.7468C12.3529 106.173 33.6853 127.595 60 127.595C86.3147 127.595 107.647 106.173 107.647 79.7468C107.647 53.3211 86.3147 31.8987 60 31.8987Z" fill="#00A3FF"/>
<path d="M84.5318 112.217C77.7174 117.417 69.2189 120.506 60 120.506C56.5074 120.506 53.1178 120.064 49.884 119.231L69.0838 85.8351L69.2957 85.714L84.5318 112.217Z" fill="#00A3FF"/>
<path d="M60.5877 90.3797L60.7979 90.5009L45.162 117.696C33.3 113.015 24.1663 102.888 20.8094 90.3797H60.5877Z" fill="#00A3FF"/>
<path d="M100.409 75.9308C100.525 77.1873 100.588 78.4599 100.588 79.7468C100.588 91.2158 95.8687 101.576 88.2767 108.982L69.4164 76.1748V75.9308H100.409Z" fill="#00A3FF"/>
<path d="M52.4207 85.2589V85.5063H19.8168C19.5517 83.6246 19.4118 81.702 19.4118 79.7468C19.4118 68.0459 24.3217 57.4968 32.1852 50.0633L52.4207 85.2589Z" fill="#00A3FF"/>
<path d="M60 38.9873C64.4138 38.9873 68.6624 39.697 72.6407 41.0052L52.7533 75.5968L52.5396 75.7214L35.9679 46.898C42.6958 41.9259 51.006 38.9873 60 38.9873Z" fill="#00A3FF"/>
<path d="M77.2007 42.8207C88.495 48.1353 96.9498 58.5195 99.6611 71.0574H61.2477L61.0357 70.9345L77.2007 42.8207Z" fill="#00A3FF"/>
<path d="M107.737 22.8591L116.472 31.6308L105.794 42.3536L97.0589 33.5819L107.737 22.8591Z" fill="#00A3FF"/>
</svg>
