<svg width="144" height="114" viewBox="0 0 144 114" fill="none" xmlns="http://www.w3.org/2000/svg">
<path d="M138 15C141.314 15 144 17.6863 144 21V108C144 111.314 141.314 114 138 114H6C2.68629 114 9.66417e-08 111.314 0 108V6C0 2.68629 2.68629 9.66384e-08 6 0H44.1553C47.5571 0 50.7995 1.44409 53.0752 3.97266L63 15H138Z" fill="url(#paint0_linear_4444_6517)"/>
<path d="M45.5978 27H6C2.68629 27 0 29.6863 0 33V105C0 108.314 2.68629 111 6 111H138C141.314 111 144 108.314 144 105V24C144 20.6863 141.314 18 138 18H61.875L52.6559 24.7048C50.6048 26.1965 48.1339 27 45.5978 27Z" fill="url(#paint1_linear_4444_6517)"/>
<path d="M138 18C141.314 18 144 20.6863 144 24V26.9902C143.995 23.681 141.31 21 138 21H61.875L52.6562 27.7051C50.6052 29.1967 48.1338 30 45.5977 30H6C2.68629 30 6.76491e-07 32.6863 0 36V33C6.76491e-07 29.6863 2.68629 27 6 27H45.5977C48.1338 27 50.6052 26.1967 52.6562 24.7051L61.875 18H138Z" fill="url(#paint2_linear_4444_6517)" fill-opacity="0.2"/>
<path d="M24 87C24 77.0589 32.0589 69 42 69H102C111.941 69 120 77.0589 120 87V111H24V87Z" fill="url(#paint3_linear_4444_6517)"/>
<path d="M45 87H99" stroke="#114A8B" stroke-width="6" stroke-linecap="round"/>
<defs>
<linearGradient id="paint0_linear_4444_6517" x1="12" y1="-1.42698e-06" x2="135" y2="114" gradientUnits="userSpaceOnUse">
<stop stop-color="#FFBF18"/>
<stop offset="1" stop-color="#E0A42C"/>
</linearGradient>
<linearGradient id="paint1_linear_4444_6517" x1="12" y1="18" x2="115.403" y2="131.806" gradientUnits="userSpaceOnUse">
<stop stop-color="#FFE69D"/>
<stop offset="1" stop-color="#FFCB3D"/>
</linearGradient>
<linearGradient id="paint2_linear_4444_6517" x1="0" y1="18" x2="144.474" y2="30.5411" gradientUnits="userSpaceOnUse">
<stop stop-color="white"/>
<stop offset="1" stop-color="white" stop-opacity="0"/>
</linearGradient>
<linearGradient id="paint3_linear_4444_6517" x1="36" y1="69" x2="111" y2="111" gradientUnits="userSpaceOnUse">
<stop stop-color="#0E8FE0"/>
<stop offset="1" stop-color="#075BA6"/>
</linearGradient>
</defs>
</svg>
