<svg width="427" height="615" viewBox="0 0 427 615" fill="none" xmlns="http://www.w3.org/2000/svg">
<path d="M0 445.812H427V600.619C427 608.561 420.564 615 412.626 615H14.3743C6.43559 615 0 608.561 0 600.619V445.812Z" fill="#44748F"/>
<path d="M14.3743 0C6.43557 0 0 6.43862 0 14.381V445.812H427V141.272L285.794 0H14.3743Z" fill="white"/>
<path d="M285.794 140.426L285.794 0L426.577 140.426L285.794 140.426Z" fill="#D9D9D9"/>
<path d="M125.375 489V569H115.688V489H125.375Z" fill="white"/>
<path d="M144.799 489H156.361L183.549 555.406H184.486L211.674 489H223.236V569H214.174V508.219H213.393L188.393 569H179.643L154.643 508.219H153.861V569H144.799V489Z" fill="white"/>
<path d="M297.348 514C296.488 511.37 295.355 509.013 293.949 506.93C292.569 504.82 290.915 503.023 288.988 501.539C287.087 500.055 284.926 498.922 282.504 498.141C280.082 497.359 277.426 496.969 274.535 496.969C269.796 496.969 265.486 498.193 261.605 500.641C257.725 503.089 254.639 506.695 252.348 511.461C250.056 516.227 248.91 522.073 248.91 529C248.91 535.927 250.069 541.773 252.387 546.539C254.704 551.305 257.842 554.911 261.801 557.359C265.759 559.807 270.212 561.031 275.16 561.031C279.743 561.031 283.78 560.055 287.27 558.102C290.785 556.122 293.52 553.336 295.473 549.742C297.452 546.122 298.441 541.865 298.441 536.969L301.41 537.594H277.348V529H307.816V537.594C307.816 544.182 306.41 549.911 303.598 554.781C300.811 559.651 296.957 563.427 292.035 566.109C287.139 568.766 281.514 570.094 275.16 570.094C268.077 570.094 261.853 568.427 256.488 565.094C251.15 561.76 246.983 557.021 243.988 550.875C241.02 544.729 239.535 537.438 239.535 529C239.535 522.672 240.382 516.982 242.074 511.93C243.793 506.852 246.215 502.529 249.34 498.961C252.465 495.393 256.163 492.659 260.434 490.758C264.704 488.857 269.405 487.906 274.535 487.906C278.754 487.906 282.686 488.544 286.332 489.82C290.004 491.07 293.272 492.854 296.137 495.172C299.027 497.464 301.436 500.211 303.363 503.414C305.29 506.591 306.618 510.12 307.348 514H297.348Z" fill="white"/>
</svg>
