<svg width="33" height="32" viewBox="0 0 33 32" fill="none" xmlns="http://www.w3.org/2000/svg">
<path d="M21.3037 26.4775C21.3038 25.4504 22.1855 25.0801 22.9551 25.5244L27.4482 28.1191L32.4941 19.3809L28.4707 17.0586C28.4718 17.0482 28.4726 17.0378 28.4736 17.0273L28.0107 16.7598C27.1212 16.2462 27.2412 15.2979 28.0107 14.8535L32.4766 12.2744L27.4453 3.56152C26.9008 3.86827 25.9549 4.40313 25.0518 4.91309L23.4326 5.84863C23.4273 5.84479 23.4214 5.84172 23.416 5.83789C23.1623 5.98195 22.9612 6.09333 22.8438 6.16113C22.0742 6.60528 21.3037 6.38094 21.3037 5.46289V0H11.1816V5.46289C11.1816 6.38104 10.4112 6.60546 9.6416 6.16113C9.53146 6.09754 9.34756 5.99665 9.11621 5.86523C9.1113 5.86877 9.10647 5.87243 9.10156 5.87598L7.4541 4.92578C6.54395 4.41184 5.58745 3.86948 5.03906 3.56055L0 12.291C0.81248 12.7658 2.17611 13.5615 3.23145 14.1768L4.09082 14.6719C4.09067 14.6735 4.09 14.6751 4.08984 14.6768C4.29989 14.7989 4.46892 14.8981 4.58105 14.9629C5.46089 15.471 5.47026 16.2091 4.58105 16.7227C4.46571 16.7893 4.29969 16.8887 4.09668 17.0078C4.09681 17.0091 4.09753 17.0104 4.09766 17.0117L3.75781 17.208C2.58525 17.8983 0.712816 19.0065 0.0146484 19.4209L5.03613 28.1191L9.53125 25.5244C10.3008 25.0802 11.1816 25.4505 11.1816 26.4775V31.6855H21.3037V26.4775ZM18.6035 19.8086C16.4599 21.0462 13.7181 20.3116 12.4805 18.168C11.2432 16.0244 11.9777 13.2835 14.1211 12.0459C16.2647 10.8084 19.0055 11.5431 20.2432 13.6865C21.4807 15.83 20.7468 18.5708 18.6035 19.8086Z" fill="#64748B"/>
</svg>
