<svg width="275" height="229" viewBox="0 0 275 229" fill="none" xmlns="http://www.w3.org/2000/svg">
<path fill-rule="evenodd" clip-rule="evenodd" d="M249.364 0C263.523 2.10764e-06 275 11.5081 275 25.7041V203.296C275 217.492 263.523 229 249.364 229H25.6356C11.4774 229 0 217.492 0 203.296V25.7041C7.50747e-07 11.5081 11.4774 0 25.6356 0H249.364ZM30.2966 56.0816V200.959H244.703V56.0816H30.2966Z" fill="#788AA0"/>
<path d="M137.5 158.898H219.068V184.602H137.5V158.898Z" fill="#788AA0"/>
<path d="M71.7289 70.102L129.406 127.933L111.279 146.109L53.6017 88.2776L71.7289 70.102Z" fill="#788AA0"/>
<path d="M53.6017 167.658L111.279 109.827L129.406 128.002L71.7288 185.833L53.6017 167.658Z" fill="#788AA0"/>
</svg>
