<svg width="35" height="30" viewBox="0 0 35 30" fill="none" xmlns="http://www.w3.org/2000/svg">
<path d="M20.6715 26.7308C20.6715 28.5363 19.2262 30 17.4434 30C15.6605 30 14.2152 28.5363 14.2152 26.7308C14.2152 24.9252 15.6605 23.4616 17.4434 23.4616C19.2262 23.4616 20.6715 24.9252 20.6715 26.7308Z" fill="#64748B"/>
<path d="M32.055 10.3272C23.9563 2.12558 10.9871 1.896 2.88835 10.2125L0 7.34478C5.9466 0.921013 21.2379 -5.33052 35 7.34478L32.055 10.3272Z" fill="#64748B"/>
<path d="M26.165 15.4321C21.1246 10.6715 14.0453 10.27 8.72168 15.432L5.72006 12.4496C11.3269 6.48457 21.9741 5.28015 29.11 12.4496L26.165 15.4321Z" fill="#64748B"/>
<path d="M21.5777 20.8808C19.5955 19.0454 16.5939 18.2425 13.3091 20.8808L10.4207 18.013C13.5922 14.9157 19.3689 13.1951 24.4094 18.1276L21.5777 20.8808Z" fill="#64748B"/>
</svg>
